PathFileType	4	(X/Y/Z)	 0.06m3min.trc
DataRate	CameraRate	NumFrames	NumMarkers	Units	OrigDataRate	OrigDataStartFrame	OrigNumFrames
200	200	11	35	m	200	748	997
Frame#	Time	C7			LSH			RSH			MAN			RASI			LASI			HIPR			HIPL			RPSI			LPSI			COX			RTHI1			RTHI2			RTHI3			RTHI4			RSHA1			RSHA2			RSHA3			RSHA4			RHEEL			RMET5			RMET1			RTOE			LTHI1			LTHI2			LTHI3			LTHI4			LSHA1			LSHA2			LSHA3			LSHA4			LHEEL			LMET5			LMET1			LTOE			
		X1	Y1	Z1	X2	Y2	Z2	X3	Y3	Z3	X4	Y4	Z4	X5	Y5	Z5	X6	Y6	Z6	X7	Y7	Z7	X8	Y8	Z8	X9	Y9	Z9	X10	Y10	Z10	X11	Y11	Z11	X12	Y12	Z12	X13	Y13	Z13	X14	Y14	Z14	X15	Y15	Z15	X16	Y16	Z16	X17	Y17	Z17	X18	Y18	Z18	X19	Y19	Z19	X20	Y20	Z20	X21	Y21	Z21	X22	Y22	Z22	X23	Y23	Z23	X24	Y24	Z24	X25	Y25	Z25	X26	Y26	Z26	X27	Y27	Z27	X28	Y28	Z28	X29	Y29	Z29	X30	Y30	Z30	X31	Y31	Z31	X32	Y32	Z32	X33	Y33	Z33	X34	Y34	Z34	X35	Y35	Z35	
748	3.7400	-0.294391	1.694125	-0.553803	-0.255869	1.684769	-0.785692	-0.201473	1.680997	-0.355120	-0.144315	1.647233	-0.576341	-0.121879	1.176088	-0.460563	-0.147623	1.176496	-0.689886	-0.185618	1.255694	-0.408184	-0.211488	1.249566	-0.728442	-0.307428	1.224054	-0.501875	-0.318281	1.225693	-0.609905	-0.318807	1.229100	-0.552865	-0.222934	0.943749	-0.369848	-0.212740	0.886570	-0.359380	-0.148330	0.896567	-0.356632	-0.151445	0.956920	-0.367813	-0.298368	0.483226	-0.342667	-0.310775	0.442197	-0.345759	-0.250899	0.431123	-0.346864	-0.243056	0.470568	-0.348218	-0.385066	0.151603	-0.407843	-0.226923	0.058304	-0.343931	-0.190380	0.063055	-0.422342	-0.163203	0.057722	-0.415088	-0.227913	0.923484	-0.769535	-0.214996	0.863611	-0.777120	-0.151333	0.872231	-0.782181	-0.155620	0.932111	-0.775276	-0.321645	0.433872	-0.759579	-0.333420	0.395340	-0.754090	-0.273283	0.382081	-0.765748	-0.269287	0.425594	-0.769817	-0.404797	0.148981	-0.690725	-0.264394	0.050896	-0.779455	-0.210543	0.049795	-0.709350	-0.182277	0.042967	-0.723042	
749	3.7450	-0.294134	1.693354	-0.553883	-0.255639	1.683997	-0.785757	-0.201359	1.680141	-0.355178	-0.144027	1.646538	-0.576368	-0.121897	1.175438	-0.460591	-0.147557	1.175595	-0.689869	-0.185529	1.254950	-0.408271	-0.211234	1.248588	-0.728616	-0.307482	1.223260	-0.502131	-0.318172	1.224814	-0.610157	-0.318866	1.228257	-0.553118	-0.222838	0.943074	-0.369981	-0.212618	0.885904	-0.359548	-0.148228	0.895913	-0.356684	-0.151359	0.956286	-0.367816	-0.298351	0.482620	-0.343154	-0.310793	0.441578	-0.346265	-0.250882	0.430501	-0.347286	-0.243055	0.469974	-0.348568	-0.384496	0.150136	-0.408742	-0.225493	0.058203	-0.344736	-0.188807	0.063551	-0.422988	-0.161570	0.058397	-0.415819	-0.227723	0.922473	-0.769382	-0.214836	0.862589	-0.776798	-0.151143	0.871137	-0.781680	-0.155386	0.931034	-0.774911	-0.321555	0.432724	-0.759288	-0.333257	0.394159	-0.753783	-0.273066	0.381051	-0.765309	-0.269163	0.424562	-0.769414	-0.404051	0.147166	-0.690391	-0.262713	0.050331	-0.778997	-0.208480	0.050175	-0.709277	-0.180206	0.043555	-0.722930	
750	3.7500	-0.293861	1.692350	-0.553960	-0.255382	1.682954	-0.785853	-0.201212	1.679015	-0.355207	-0.143726	1.645579	-0.576393	-0.121936	1.174574	-0.460625	-0.147517	1.174473	-0.689851	-0.185486	1.253985	-0.408372	-0.211014	1.247417	-0.728747	-0.307567	1.222181	-0.502389	-0.318081	1.223632	-0.610411	-0.318968	1.227123	-0.553366	-0.222649	0.942201	-0.370109	-0.212400	0.885003	-0.359711	-0.148017	0.895039	-0.356803	-0.151166	0.955429	-0.367886	-0.298317	0.481743	-0.343672	-0.310808	0.440712	-0.346788	-0.250873	0.429631	-0.347707	-0.243063	0.469138	-0.348907	-0.383907	0.148515	-0.409634	-0.224163	0.057726	-0.345583	-0.187298	0.063699	-0.423666	-0.160012	0.058684	-0.416594	-0.227454	0.921226	-0.769263	-0.214590	0.861335	-0.776490	-0.150864	0.869808	-0.781134	-0.155067	0.929721	-0.774514	-0.321410	0.431350	-0.759047	-0.333034	0.392770	-0.753535	-0.272788	0.379813	-0.764895	-0.268976	0.423319	-0.769025	-0.403328	0.145342	-0.690105	-0.261237	0.049254	-0.778256	-0.206668	0.050133	-0.708928	-0.178425	0.043666	-0.722520	
751	3.7550	-0.293570	1.691119	-0.554035	-0.255089	1.681644	-0.785982	-0.201030	1.677624	-0.355208	-0.143408	1.644355	-0.576419	-0.121996	1.173495	-0.460664	-0.147502	1.173147	-0.689834	-0.185499	1.252811	-0.408482	-0.210827	1.246083	-0.728819	-0.307680	1.220806	-0.502645	-0.318008	1.222158	-0.610653	-0.319112	1.225694	-0.553603	-0.222374	0.941099	-0.370228	-0.212094	0.883883	-0.359871	-0.147709	0.893934	-0.356988	-0.150882	0.954328	-0.368029	-0.298268	0.480570	-0.344241	-0.310805	0.439575	-0.347348	-0.250852	0.428504	-0.348127	-0.243067	0.468021	-0.349273	-0.383306	0.146780	-0.410505	-0.222984	0.056817	-0.346470	-0.185903	0.063435	-0.424365	-0.158580	0.058506	-0.417401	-0.227115	0.919758	-0.769174	-0.214262	0.859862	-0.776198	-0.150499	0.868257	-0.780548	-0.154668	0.928185	-0.774085	-0.321198	0.429774	-0.758881	-0.332746	0.391175	-0.753397	-0.272446	0.378369	-0.764518	-0.268715	0.421869	-0.768655	-0.402658	0.143526	-0.689865	-0.259988	0.047677	-0.777229	-0.205154	0.049641	-0.708276	-0.176969	0.043256	-0.721772	
752	3.7600	-0.293263	1.689654	-0.554109	-0.254762	1.680072	-0.786139	-0.200812	1.675971	-0.355182	-0.143077	1.642863	-0.576445	-0.122077	1.172193	-0.460709	-0.147508	1.171624	-0.689823	-0.185578	1.251416	-0.408598	-0.210673	1.244586	-0.728835	-0.307815	1.219136	-0.502894	-0.317956	1.220399	-0.610876	-0.319291	1.223976	-0.553827	-0.222023	0.939766	-0.370339	-0.211725	0.882498	-0.360110	-0.147313	0.892595	-0.357234	-0.150520	0.952987	-0.368233	-0.298202	0.479107	-0.344830	-0.310779	0.438157	-0.347899	-0.250807	0.427104	-0.348539	-0.243047	0.466623	-0.349659	-0.382702	0.144951	-0.411339	-0.222001	0.055446	-0.347406	-0.184664	0.062724	-0.425090	-0.157319	0.057815	-0.418237	-0.226707	0.918073	-0.769110	-0.213857	0.858170	-0.775927	-0.150062	0.866485	-0.779933	-0.154197	0.926435	-0.773627	-0.320918	0.428000	-0.758796	-0.332397	0.389401	-0.753383	-0.272039	0.376721	-0.764175	-0.268375	0.420208	-0.768310	-0.402077	0.141715	-0.689666	-0.258955	0.045674	-0.775931	-0.203963	0.048681	-0.707259	-0.175851	0.042338	-0.720669	
753	3.7650	-0.292945	1.687949	-0.554182	-0.254401	1.678240	-0.786321	-0.200559	1.674061	-0.355130	-0.142739	1.641107	-0.576469	-0.122176	1.170663	-0.460758	-0.147532	1.169902	-0.689824	-0.185721	1.249796	-0.408719	-0.210574	1.242902	-0.728814	-0.307965	1.217179	-0.503133	-0.317940	1.218380	-0.611072	-0.319501	1.221974	-0.554033	-0.221609	0.938196	-0.370443	-0.211294	0.880866	-0.360379	-0.146849	0.891011	-0.357534	-0.150096	0.951399	-0.368490	-0.298104	0.477367	-0.345386	-0.310715	0.436460	-0.348435	-0.250719	0.425433	-0.348932	-0.242982	0.464951	-0.350020	-0.382112	0.143055	-0.412129	-0.221245	0.053586	-0.348399	-0.183628	0.061524	-0.425862	-0.156275	0.056572	-0.419106	-0.226239	0.916166	-0.769060	-0.213382	0.856261	-0.775677	-0.149560	0.864507	-0.779302	-0.153663	0.924484	-0.773153	-0.320572	0.426043	-0.758800	-0.332004	0.387457	-0.753473	-0.271576	0.374870	-0.763859	-0.267961	0.418341	-0.767996	-0.401640	0.139894	-0.689483	-0.258141	0.043376	-0.774448	-0.203068	0.047317	-0.705870	-0.175014	0.040970	-0.719200	
754	3.7700	-0.292622	1.686003	-0.554253	-0.254008	1.676152	-0.786522	-0.200275	1.671895	-0.355050	-0.142402	1.639090	-0.576488	-0.122296	1.168897	-0.460811	-0.147576	1.167983	-0.689837	-0.185929	1.247932	-0.408834	-0.210530	1.241028	-0.728759	-0.308126	1.214937	-0.503366	-0.317958	1.216110	-0.611239	-0.319735	1.219691	-0.554220	-0.221143	0.936351	-0.370528	-0.210799	0.878997	-0.360610	-0.146326	0.889171	-0.357877	-0.149620	0.949553	-0.368792	-0.297959	0.475367	-0.345886	-0.310557	0.434471	-0.348929	-0.250571	0.423489	-0.349307	-0.242850	0.463016	-0.350360	-0.381559	0.141100	-0.412881	-0.220734	0.051233	-0.349454	-0.182817	0.059847	-0.426712	-0.155483	0.054781	-0.420045	-0.225713	0.914047	-0.769011	-0.212840	0.854140	-0.775447	-0.148997	0.862336	-0.778674	-0.153076	0.922324	-0.772658	-0.320170	0.423922	-0.758894	-0.331576	0.385362	-0.753695	-0.271079	0.372812	-0.763563	-0.267480	0.416270	-0.767702	-0.401416	0.138022	-0.689294	-0.257547	0.040961	-0.772939	-0.202377	0.045710	-0.704235	-0.174335	0.039273	-0.717409	
755	3.7750	-0.292304	1.683823	-0.554317	-0.253577	1.673809	-0.786737	-0.199958	1.669474	-0.354944	-0.142068	1.636815	-0.576497	-0.122435	1.166889	-0.460865	-0.147640	1.165869	-0.689865	-0.186195	1.245825	-0.408940	-0.210535	1.238969	-0.728683	-0.308301	1.212412	-0.503584	-0.318014	1.213597	-0.611364	-0.319990	1.217131	-0.554383	-0.220637	0.934217	-0.370591	-0.210252	0.876866	-0.360874	-0.145753	0.887074	-0.358251	-0.149109	0.947449	-0.369124	-0.297761	0.473122	-0.346313	-0.310295	0.432188	-0.349376	-0.250337	0.421276	-0.349673	-0.242635	0.460811	-0.350692	-0.381067	0.139069	-0.413587	-0.220465	0.048447	-0.350576	-0.182260	0.057672	-0.427681	-0.154957	0.052443	-0.421072	-0.225132	0.911713	-0.768964	-0.212234	0.851812	-0.775237	-0.148375	0.859969	-0.778058	-0.152442	0.919969	-0.772154	-0.319721	0.421656	-0.759084	-0.331140	0.383118	-0.754045	-0.270576	0.370542	-0.763283	-0.266952	0.414003	-0.767424	-0.401467	0.136050	-0.689061	-0.257179	0.038578	-0.771603	-0.201810	0.043987	-0.702562	-0.173736	0.037355	-0.715479	
756	3.7800	-0.291993	1.681401	-0.554370	-0.253108	1.671218	-0.786961	-0.199615	1.666805	-0.354810	-0.141742	1.634284	-0.576492	-0.122594	1.164629	-0.460919	-0.147723	1.163554	-0.689907	-0.186511	1.243460	-0.409032	-0.210603	1.236668	-0.728622	-0.308492	1.209615	-0.503781	-0.318109	1.210841	-0.611452	-0.320260	1.214309	-0.554521	-0.220101	0.931803	-0.370645	-0.209661	0.874458	-0.361126	-0.145147	0.884708	-0.358641	-0.148576	0.945091	-0.369457	-0.297492	0.470641	-0.346699	-0.309918	0.429614	-0.349772	-0.250013	0.418802	-0.350031	-0.242327	0.458350	-0.351016	-0.380691	0.136944	-0.414251	-0.220382	0.045380	-0.351689	-0.181914	0.055105	-0.428813	-0.154623	0.049661	-0.422243	-0.224498	0.909160	-0.768912	-0.211563	0.849271	-0.775044	-0.147697	0.857412	-0.777472	-0.151758	0.917434	-0.771675	-0.319256	0.419236	-0.759341	-0.330731	0.380734	-0.754443	-0.270094	0.368076	-0.762992	-0.266403	0.411541	-0.767149	-0.401847	0.133947	-0.688727	-0.257055	0.036359	-0.770658	-0.201309	0.042311	-0.701076	-0.173167	0.035369	-0.713690	
757	3.7850	-0.291696	1.678744	-0.554404	-0.252607	1.668384	-0.787190	-0.199249	1.663893	-0.354647	-0.141436	1.631512	-0.576468	-0.122771	1.162114	-0.460967	-0.147829	1.161036	-0.689960	-0.186861	1.240827	-0.409103	-0.210735	1.234118	-0.728578	-0.308702	1.206559	-0.503955	-0.318241	1.207851	-0.611507	-0.320544	1.211231	-0.554633	-0.219541	0.929120	-0.370696	-0.209023	0.871787	-0.361332	-0.144507	0.882075	-0.359047	-0.148026	0.942466	-0.369803	-0.297139	0.467933	-0.347056	-0.309421	0.426781	-0.350107	-0.249591	0.416079	-0.350385	-0.241920	0.455639	-0.351342	-0.380502	0.134678	-0.414890	-0.220371	0.042233	-0.352632	-0.181647	0.052339	-0.430045	-0.154336	0.046577	-0.423585	-0.223813	0.906391	-0.768852	-0.210827	0.846522	-0.774870	-0.146952	0.854677	-0.776932	-0.151027	0.914718	-0.771229	-0.318792	0.416699	-0.759682	-0.330379	0.378212	-0.754853	-0.269666	0.365422	-0.762677	-0.265868	0.408894	-0.766866	-0.402589	0.131684	-0.688271	-0.257205	0.034413	-0.770321	-0.200850	0.040887	-0.700066	-0.172585	0.033495	-0.712233	
758	3.7900	-0.291414	1.675862	-0.554413	-0.252074	1.665308	-0.787423	-0.198866	1.660743	-0.354456	-0.141146	1.628502	-0.576427	-0.122968	1.159342	-0.461009	-0.147959	1.158314	-0.690021	-0.187236	1.237916	-0.409140	-0.210919	1.231313	-0.728550	-0.308938	1.203253	-0.504103	-0.318402	1.204626	-0.611534	-0.320839	1.207911	-0.554722	-0.218973	0.926147	-0.370735	-0.208350	0.868845	-0.361458	-0.143842	0.879178	-0.359448	-0.147471	0.939579	-0.370155	-0.296675	0.465018	-0.347374	-0.308794	0.423715	-0.350361	-0.249079	0.413104	-0.350741	-0.241418	0.452679	-0.351673	-0.380584	0.132219	-0.415504	-0.220371	0.039188	-0.353213	-0.181339	0.049556	-0.431253	-0.153986	0.043340	-0.425042	-0.223075	0.903415	-0.768791	-0.210019	0.843568	-0.774716	-0.146137	0.851763	-0.776441	-0.150250	0.911823	-0.770819	-0.318367	0.414055	-0.760052	-0.330103	0.375588	-0.755280	-0.269344	0.362597	-0.762337	-0.265385	0.406069	-0.766559	-0.403699	0.129249	-0.687703	-0.257622	0.032766	-0.770649	-0.200459	0.039790	-0.699681	-0.172041	0.031808	-0.711248	
